<?xml version="1.0" encoding="UTF-8" standalone="no"?>
<svg
   viewBox="0 0 480 480"
   version="1.1"
   id="svg27"
   width="480"
   height="480"
   xmlns="http://www.w3.org/2000/svg"
   xmlns:svg="http://www.w3.org/2000/svg">
  <defs
     id="defs19">
    <style
       id="style2">.cls-1{fill:#22262a;}.cls-2{stroke:#174547;stroke-miterlimit:10;fill-rule:evenodd;fill:url(#linear-gradient);}</style>
    <linearGradient
       id="linear-gradient"
       x1="300"
       y1="109.87"
       x2="300"
       y2="490.13"
       gradientUnits="userSpaceOnUse"
       gradientTransform="translate(-60.114272,-60.093146)">
      <stop
         offset="0"
         stop-color="#00fffe"
         id="stop4" />
      <stop
         offset="0.18"
         stop-color="#00fbfa"
         id="stop6" />
      <stop
         offset="0.36"
         stop-color="#00efee"
         id="stop8" />
      <stop
         offset="0.53"
         stop-color="#00dcdb"
         id="stop10" />
      <stop
         offset="0.71"
         stop-color="#00c1c0"
         id="stop12" />
      <stop
         offset="0.88"
         stop-color="#009e9d"
         id="stop14" />
      <stop
         offset="1"
         stop-color="#00807f"
         id="stop16" />
    </linearGradient>
  </defs>
  <path
     class="cls-2"
     d="m 172.54573,49.906853 c -26,2.83 -45.68,22.920001 -49,50.139997 a 85.72,85.72 0 0 0 0.72,20.54 74.33,74.33 0 0 0 11.31,26.68 c 4.71,6.56 12.4,13.8 17.78,16.73 l 1.8,1 2.48,-2.51 c 7.6,-7.71 14.81,-20.54 17.51,-31.18 0.61,-2.41 0.78,-3.71 0.54,-4.15 a 11.26,11.26 0 0 0 -2.8,-2.08 32.8,32.8 0 0 1 -12.27,-13.56 c -4.31,-9 -4.65,-19.639997 -1,-30.459997 a 48.57,48.57 0 0 1 10.66,-17.34 43.2,43.2 0 0 1 13.09,-9.54 c 5.1,-2.45 5.47,-3.06 2.27,-3.7 a 79.44,79.44 0 0 0 -13.09,-0.57 z m 125.69,0 c -0.71,0.08 -2.4,0.33 -3.76,0.55 -3.66,0.6 -3.36,1.19 1.9,3.72 a 46.41,46.41 0 0 1 21.37,21.290001 c 6,12.06 6.54,25.319996 1.42,35.999996 a 32.8,32.8 0 0 1 -12.28,13.57 11.26,11.26 0 0 0 -2.8,2.08 c -0.24,0.44 -0.07,1.74 0.54,4.15 2.7,10.64 9.91,23.47 17.51,31.18 l 2.48,2.51 1.8,-1 c 5.38,-2.93 13.07,-10.17 17.78,-16.73 a 74.33,74.33 0 0 0 11.31,-26.68 85.72,85.72 0 0 0 0.72,-20.54 c -3.11,-25.439996 -20.69,-44.999996 -44.42,-49.449996 a 75.37,75.37 0 0 0 -13.57,-0.650001 z m -59.57,45.900001 c -3.82,5.539996 -7.22,18.099996 -5.68,20.999996 a 12.15,12.15 0 0 0 3.69,2.57 l 3.21,1.68 3.21,-1.68 a 12.15,12.15 0 0 0 3.69,-2.57 c 1.13,-2.11 -0.57,-10.7 -3.25,-16.45 -1.51,-3.219996 -3.17,-5.909996 -3.65,-5.909996 a 4.5,4.5 0 0 0 -1.22,1.36 z m -20.78,21.569996 a 11.61,11.61 0 0 0 -3.26,1.53 l -1.27,1 1.93,0.5 a 25,25 0 0 1 11.24,6.89 c 7.77,7.74 9.89,15.43 8.58,31.2 -0.88,10.62 -3.13,17.72 -6.43,20.23 -1.07,0.82 -1.81,1 -5.3,1.3 a 38.84,38.84 0 0 0 -28,15.68 41.77,41.77 0 0 0 -6.41,13.64 25.62,25.62 0 0 0 -0.82,8.87 c 0.11,4.13 0.24,5.15 0.75,5.66 0.51,0.51 0.71,0.42 2.07,-2.53 a 37,37 0 0 1 7.92,-11.46 24.5,24.5 0 0 1 10.39,-6.53 c 2.91,-1 3.65,-1.12 7.62,-1.12 3.97,0 4.8,0.14 7.34,1 a 29.12,29.12 0 0 1 13.77,10.09 c 0.7,1 1.53,1.85 1.83,1.85 0.3,0 1.13,-0.83 1.83,-1.85 a 29.12,29.12 0 0 1 13.77,-10.09 c 2.54,-0.86 3.51,-1 7.34,-1 3.83,0 4.71,0.11 7.62,1.12 a 24.5,24.5 0 0 1 10.49,6.49 37,37 0 0 1 7.92,11.46 c 1.36,3 1.49,3.11 2.07,2.53 0.58,-0.58 0.64,-1.53 0.75,-5.66 a 25.62,25.62 0 0 0 -0.82,-8.87 39,39 0 0 0 -34.36,-29.32 c -3.49,-0.3 -4.23,-0.48 -5.3,-1.3 -3.3,-2.51 -5.55,-9.61 -6.43,-20.23 -1.31,-15.77 0.81,-23.46 8.58,-31.2 a 25,25 0 0 1 11.24,-6.89 l 1.93,-0.5 -1.27,-1 a 12.48,12.48 0 0 0 -3.63,-1.58 c -5.11,-1.31 -14.33,0.42 -20,3.76 l -1.6,0.94 -1.6,-0.94 c -5.77,-3.29 -15.48,-5.07 -20.48,-3.67 z m -10.29,6 a 17.59,17.59 0 0 0 -8,4.67 c -2.55,2.36 -3.9,5.19 -5.4,11.28 a 81.92,81.92 0 0 1 -17,32.83 31,31 0 0 1 -3.26,3.4 10.16,10.16 0 0 0 -1.93,1.56 c -1.46,1.35 -1.84,2 -2.82,5 -2.07,6.4 -3.22,13.72 -2.91,18.65 0.11,1.75 0.5,5.75 0.86,8.88 0.84,7.21 1,35.53 0.2,42.93 -1.32,12.75 -3,21.73 -5.08,27.89 -1.73,5 -3.27,7.53 -5.14,8.31 -1.87,0.78 -1.57,1.37 0.51,1.07 3.23,-0.46 6.18,-2.16 9.46,-5.44 6.67,-6.67 11.67,-16.9 15.59,-31.83 2.63,-10 3.62,-18.22 4,-33.21 0.26,-9.94 0.42,-12.15 1.05,-14.42 2.44,-8.95 9,-17.21 17.86,-22.39 5.42,-3.18 12.39,-5.51 16.79,-5.61 4,-0.1 4.82,-0.44 6.17,-2.63 1.46,-2.37 2,-3.8 3.29,-9.12 2.52,-10.19 2.37,-19.71 -0.41,-26.85 -2.24,-5.73 -7,-11.27 -11.71,-13.54 -4.71,-2.27 -7.83,-2.58 -12.12,-1.45 z m 56.59,-0.14 c -6.52,1.58 -12.93,7.72 -15.83,15.15 -2.78,7.14 -2.93,16.66 -0.41,26.85 1.32,5.32 1.83,6.75 3.29,9.12 1.35,2.19 2.15,2.53 6.17,2.63 4.4,0.1 11.37,2.43 16.79,5.61 8.82,5.18 15.42,13.44 17.86,22.39 0.63,2.27 0.79,4.48 1.05,14.42 0.41,15 1.4,23.18 4,33.21 3.92,14.93 8.92,25.16 15.59,31.83 3.28,3.28 6.23,5 9.46,5.44 2.08,0.3 2.36,-0.3 0.51,-1.07 -4.37,-1.83 -8,-14.6 -10.22,-36.2 -0.77,-7.4 -0.64,-35.72 0.2,-42.93 0.36,-3.13 0.75,-7.13 0.86,-8.88 0.31,-4.93 -0.84,-12.25 -2.91,-18.65 -1,-3 -1.36,-3.69 -2.82,-5 a 10.16,10.16 0 0 0 -1.93,-1.56 31,31 0 0 1 -3.26,-3.4 81.92,81.92 0 0 1 -17,-32.83 c -1.51,-6.11 -2.85,-8.91 -5.42,-11.3 -4.87,-4.59 -10.28,-6.22 -15.98,-4.85 z m -85.81,5.62 a 8.13,8.13 0 0 0 -0.87,2.84 53.93,53.93 0 0 1 -5.11,14.32 c -3.77,7.57 -8.83,14.73 -13.06,18.45 l -1.61,1.44 0.66,1.09 c 0.69,1.13 4.3,4.14 6.73,5.61 a 20,20 0 0 0 5.81,2.23 c 1.65,0 9.55,-10.5 14.06,-18.67 3.59,-6.53 7.07,-15.35 7.44,-18.94 l 0.2,-1.84 -2.33,-1.88 a 40.66,40.66 0 0 0 -3.62,-2.64 c -2.11,-1.26 -7.5,-2.55 -8.3,-2.03 z m 119.61,0.27 a 17,17 0 0 0 -8.14,4.07 l -2.7,2.16 0.19,1.84 c 0.39,3.6 3.86,12.42 7.45,18.95 4.51,8.17 12.41,18.67 14.06,18.67 a 20,20 0 0 0 5.81,-2.23 c 2.43,-1.47 6,-4.48 6.73,-5.61 l 0.66,-1.09 -1.61,-1.42 c -7.63,-6.71 -16.27,-22.31 -18.17,-32.77 -0.62,-3.41 -0.58,-3.39 -4.28,-2.59 z m -56.48,52.69 c 1.53,1.82 2.23,4.75 2.23,9.33 0,4.32 -0.42,6.32 -1.74,8.26 -1.12,1.65 -1.93,2.12 -2.75,1.62 a 9.34,9.34 0 0 1 -2.76,-4.34 c -0.69,-2.29 -0.58,-9.15 0.19,-11.66 0.73,-2.34 2.2,-4.34 3.21,-4.34 a 3.1,3.1 0 0 1 1.62,1.11 z m -34.95,29.67 a 10.09,10.09 0 0 0 -3.59,2.27 c -3.06,3 -6.75,11.56 -6.86,15.93 -0.06,2.15 0.06,2.45 5.56,13.39 a 141.08,141.08 0 0 0 7,12.85 c 2.91,3.45 7.54,4.66 10.94,2.84 6.49,-3.49 13.91,-15.3 16.26,-25.9 1.16,-5.25 0.85,-8.27 -1,-10.06 -1,-1 -12.09,-7.06 -18.63,-10.23 -4.22,-2.06 -6.27,-2.29 -9.68,-1.11 z m -18.6,49.66 c -0.56,1.06 -1.49,2.77 -2,3.79 -2.89,5.29 -7.28,16.06 -9.94,24.38 a 175.29,175.29 0 0 0 -5.81,25 c -0.35,2.12 -0.91,8.32 -1.29,14.49 a 91.05,91.05 0 0 0 2.07,22.53 c 1.72,7.19 3.38,10.58 9.9,20.29 13.85,20.65 22.82,41.87 21.81,51.66 l -0.25,2.4 0.81,-0.79 c 1.52,-1.48 1.92,-4.06 2.09,-13.39 a 87.44,87.44 0 0 0 -0.46,-13.6 c -1.37,-10.84 -2.87,-16.68 -6.06,-23.43 -4.18,-8.87 -6.18,-18.68 -6.84,-33.53 a 133.57,133.57 0 0 1 3,-31.79 53.66,53.66 0 0 1 4.56,-13 24.56,24.56 0 0 0 2.71,-8.09 c 1,-5.84 0.88,-6.48 -1,-8.84 -3.17,-3.89 -9.13,-14.48 -10.45,-18.58 -0.71,-2.04 -1.59,-1.87 -2.85,0.48 z m 101.09,-0.55 c -1.32,4.1 -7.28,14.69 -10.45,18.58 -1.92,2.36 -2,3 -1,8.84 a 24.56,24.56 0 0 0 2.71,8.09 53.66,53.66 0 0 1 4.56,13 133.57,133.57 0 0 1 3,31.79 c -0.66,14.85 -2.66,24.66 -6.84,33.53 -3.19,6.75 -4.69,12.59 -6.06,23.43 a 87.44,87.44 0 0 0 -0.45,13.58 c 0.17,9.33 0.57,11.91 2.09,13.39 l 0.81,0.79 -0.25,-2.4 c -1,-9.79 8,-31 21.81,-51.66 6.52,-9.71 8.18,-13.1 9.9,-20.29 a 91.05,91.05 0 0 0 2.01,-22.52 c -0.38,-6.17 -0.94,-12.37 -1.29,-14.49 a 175.29,175.29 0 0 0 -5.81,-25 c -2.66,-8.32 -7.05,-19.09 -9.94,-24.38 -0.56,-1 -1.49,-2.73 -2.05,-3.79 -1.24,-2.31 -2.12,-2.48 -2.75,-0.51 z m -61.29,7.65 c -1.12,2.09 -10,9 -16.35,12.73 a 24.35,24.35 0 0 0 -3.59,2.43 c -0.46,0.5 -0.77,2.13 -1.18,6.09 -0.47,4.43 -0.8,6 -1.85,8.76 a 101.59,101.59 0 0 0 -5.26,21 c -0.69,4.25 -1,14.93 -0.68,22 0.82,17.42 5.77,34.3 14,47.83 4.65,7.63 8.1,18.41 9.41,29.37 a 21.44,21.44 0 0 1 -0.6,9.71 6.38,6.38 0 0 0 -0.45,1.89 3.81,3.81 0 0 0 1.41,-0.49 c 1.62,-0.76 3.07,-3.52 3.89,-7.39 0.91,-4.32 1.1,-18.45 0.36,-26.42 a 182.48,182.48 0 0 0 -5.9,-32.75 c -0.92,-3.46 -1.92,-8 -2.21,-10.14 -1.58,-11.23 0.34,-26.15 4.95,-38.4 3.2,-8.52 7,-14.23 11.39,-17 1.11,-0.7 2.64,-1.76 3.39,-2.36 l 1.4,-1.1 1.38,1.07 c 0.75,0.6 2.28,1.66 3.39,2.36 10.84,6.89 19.18,35.16 16.34,55.4 -0.29,2.11 -1.29,6.68 -2.21,10.14 a 182.48,182.48 0 0 0 -5.9,32.75 c -0.74,8 -0.55,22.1 0.36,26.42 0.82,3.87 2.27,6.63 3.89,7.39 a 3.81,3.81 0 0 0 1.41,0.49 6.38,6.38 0 0 0 -0.45,-1.89 21.44,21.44 0 0 1 -0.6,-9.71 c 1.31,-11 4.76,-21.74 9.41,-29.37 8.25,-13.53 13.2,-30.41 14,-47.83 0.33,-7.06 0,-17.74 -0.68,-22 a 101.59,101.59 0 0 0 -5.26,-21 c -1.05,-2.74 -1.38,-4.33 -1.85,-8.76 -0.4,-3.91 -0.73,-5.6 -1.17,-6.08 a 20.79,20.79 0 0 0 -3.22,-2.21 c -6.39,-3.75 -15.35,-10.66 -16.61,-12.79 -0.8,-1.34 -1.8,-1.43 -4.12,-0.38 a 28.59,28.59 0 0 0 -7.21,5.62 l -0.92,1.16 -0.92,-1.16 a 28.59,28.59 0 0 0 -7.21,-5.62 c -2.21,-1 -3.35,-0.94 -3.98,0.22 z m 9.64,34.61 c -1.89,1.81 -6.35,8.22 -8.05,11.57 -4,7.83 -6.34,19.46 -6.34,31.14 a 67,67 0 0 0 3.85,22.1 c 2.42,6.16 3.37,8.79 4.48,12.48 5.13,16.94 7.58,27.78 7.91,35 0.07,1.5 0.23,2 0.64,2 0.41,0 0.57,-0.51 0.64,-2 0.33,-7.27 2.78,-18.11 7.91,-35 1.11,-3.69 2.06,-6.32 4.48,-12.48 5.22,-13.29 5.09,-33 -0.3,-47.91 a 42.35,42.35 0 0 0 -5.73,-11.14 c -2.71,-4.12 -5.91,-7.58 -7,-7.58 a 7.38,7.38 0 0 0 -2.49,1.8 z"
     id="path23"
     style="fill:#000000;stroke:none;stroke-opacity:1" />
</svg>
