<?xml version="1.0" encoding="UTF-8" standalone="no"?>
<svg
   width="600"
   height="600"
   viewBox="0 0 599.99999 600.00001"
   fill="none"
   version="1.1"
   id="svg148"
   sodipodi:docname="xpower-dark.svg"
   inkscape:version="1.1.2 (0a00cf5339, 2022-02-04)"
   xmlns:inkscape="http://www.inkscape.org/namespaces/inkscape"
   xmlns:sodipodi="http://sodipodi.sourceforge.net/DTD/sodipodi-0.dtd"
   xmlns="http://www.w3.org/2000/svg"
   xmlns:svg="http://www.w3.org/2000/svg">
  <sodipodi:namedview
     id="namedview150"
     pagecolor="#ffffff"
     bordercolor="#666666"
     borderopacity="1.0"
     inkscape:pageshadow="2"
     inkscape:pageopacity="0.0"
     inkscape:pagecheckerboard="0"
     showgrid="true"
     fit-margin-left="127.1625"
     fit-margin-right="127.1625"
     fit-margin-top="0.95159"
     fit-margin-bottom="0.95159"
     inkscape:zoom="0.69044441"
     inkscape:cx="74.58964"
     inkscape:cy="300.53107"
     inkscape:window-width="1720"
     inkscape:window-height="687"
     inkscape:window-x="0"
     inkscape:window-y="0"
     inkscape:window-maximized="1"
     inkscape:current-layer="svg148">
    <inkscape:grid
       type="xygrid"
       id="grid989" />
  </sodipodi:namedview>
  <defs
     id="defs146">
    <linearGradient
       id="paint0_linear_149_31"
       x1="78.285599"
       y1="360.379"
       x2="203.05099"
       y2="-171.985"
       gradientUnits="userSpaceOnUse"
       gradientTransform="translate(127.00039,4.18e-4)">
      <stop
         stop-color="#04E104"
         id="stop58" />
      <stop
         offset="0.335771"
         stop-color="#00FF00"
         id="stop60" />
      <stop
         offset="0.53125"
         stop-color="#00FFFE"
         id="stop62" />
    </linearGradient>
    <linearGradient
       id="paint1_linear_149_31"
       x1="117.401"
       y1="358.52701"
       x2="254.536"
       y2="-89.2789"
       gradientUnits="userSpaceOnUse"
       gradientTransform="translate(127.00039,4.18e-4)">
      <stop
         stop-opacity="0"
         id="stop65" />
      <stop
         offset="1"
         stop-opacity="0.47"
         id="stop67" />
    </linearGradient>
    <linearGradient
       id="paint2_linear_149_31"
       x1="-29.145599"
       y1="321.026"
       x2="190.95599"
       y2="-197.875"
       gradientUnits="userSpaceOnUse"
       gradientTransform="translate(127.00039,4.18e-4)">
      <stop
         stop-color="#00FF00"
         id="stop70" />
      <stop
         offset="0.335771"
         stop-color="#00FF00"
         id="stop72" />
      <stop
         offset="0.53125"
         stop-color="#00FFFE"
         id="stop74" />
    </linearGradient>
    <linearGradient
       id="paint3_linear_149_31"
       x1="113.984"
       y1="358.57599"
       x2="250.51801"
       y2="-89.634697"
       gradientUnits="userSpaceOnUse"
       gradientTransform="translate(127.00039,4.18e-4)">
      <stop
         stop-opacity="0"
         id="stop77" />
      <stop
         offset="1"
         stop-opacity="0.47"
         id="stop79" />
    </linearGradient>
    <linearGradient
       id="paint4_linear_149_31"
       x1="124.389"
       y1="248.82401"
       x2="-18.9809"
       y2="372.13"
       gradientUnits="userSpaceOnUse"
       gradientTransform="translate(127.00039,4.18e-4)">
      <stop
         stop-color="#FFE605"
         id="stop82" />
      <stop
         offset="1"
         stop-color="#FFFF00"
         id="stop84" />
    </linearGradient>
    <linearGradient
       id="paint5_linear_149_31"
       x1="141.952"
       y1="225.397"
       x2="37.804901"
       y2="363.57199"
       gradientUnits="userSpaceOnUse"
       gradientTransform="translate(127.00039,4.18e-4)">
      <stop
         stop-color="#9B9B9B"
         id="stop87" />
      <stop
         offset="1"
         stop-color="#B9B9B9"
         stop-opacity="0"
         id="stop89" />
    </linearGradient>
    <linearGradient
       id="paint6_linear_149_31"
       x1="355.67899"
       y1="226.73399"
       x2="219.698"
       y2="670.91302"
       gradientUnits="userSpaceOnUse"
       gradientTransform="translate(127.00039,4.18e-4)">
      <stop
         stop-color="#04E104"
         id="stop92" />
      <stop
         offset="0.518418"
         stop-color="#00FF00"
         id="stop94" />
      <stop
         offset="0.802778"
         stop-color="#00FFFE"
         id="stop96" />
    </linearGradient>
    <linearGradient
       id="paint7_linear_149_31"
       x1="232.03101"
       y1="584.13098"
       x2="368.582"
       y2="135.931"
       gradientUnits="userSpaceOnUse"
       gradientTransform="translate(127.00039,4.18e-4)">
      <stop
         stop-opacity="0"
         id="stop99" />
      <stop
         offset="1"
         stop-opacity="0.47"
         id="stop101" />
    </linearGradient>
    <linearGradient
       id="paint8_linear_149_31"
       x1="301.89499"
       y1="226.785"
       x2="122.442"
       y2="645.94897"
       gradientUnits="userSpaceOnUse"
       gradientTransform="translate(127.00039,4.18e-4)">
      <stop
         stop-color="#00FF00"
         id="stop104" />
      <stop
         offset="0.518418"
         stop-color="#00FF00"
         id="stop106" />
      <stop
         offset="0.802778"
         stop-color="#00FFFE"
         id="stop108" />
    </linearGradient>
    <linearGradient
       id="paint9_linear_149_31"
       x1="228.664"
       y1="584.18103"
       x2="365.815"
       y2="136.38699"
       gradientUnits="userSpaceOnUse"
       gradientTransform="translate(127.00039,4.18e-4)">
      <stop
         stop-opacity="0"
         id="stop111" />
      <stop
         offset="1"
         stop-opacity="0.47"
         id="stop113" />
    </linearGradient>
    <linearGradient
       id="paint10_linear_149_31"
       x1="262.65399"
       y1="216.84801"
       x2="119.284"
       y2="340.15399"
       gradientUnits="userSpaceOnUse"
       gradientTransform="translate(127.00039,4.18e-4)">
      <stop
         stop-color="#FFE605"
         id="stop116" />
      <stop
         offset="1"
         stop-color="#FFFF00"
         id="stop118" />
    </linearGradient>
    <linearGradient
       id="paint11_linear_149_31"
       x1="280.21701"
       y1="193.42"
       x2="176.07001"
       y2="331.59601"
       gradientUnits="userSpaceOnUse"
       gradientTransform="translate(127.00039,4.18e-4)">
      <stop
         stop-color="#9B9B9B"
         id="stop121" />
      <stop
         offset="1"
         stop-color="#B9B9B9"
         stop-opacity="0"
         id="stop123" />
    </linearGradient>
    <linearGradient
       id="paint12_linear_149_31"
       x1="103.867"
       y1="248.82401"
       x2="103.867"
       y2="383.18301"
       gradientUnits="userSpaceOnUse"
       gradientTransform="translate(127.00039,4.18e-4)">
      <stop
         stop-color="#FFFF00"
         id="stop126" />
      <stop
         offset="1"
         stop-color="#FFE605"
         id="stop128" />
    </linearGradient>
    <linearGradient
       id="paint13_linear_149_31"
       x1="170.437"
       y1="287.78601"
       x2="103.867"
       y2="383.18301"
       gradientUnits="userSpaceOnUse"
       gradientTransform="translate(127.00039,4.18e-4)">
      <stop
         stop-color="#818181"
         id="stop131" />
      <stop
         offset="1"
         stop-opacity="0"
         id="stop133" />
    </linearGradient>
    <linearGradient
       id="paint14_linear_149_31"
       x1="242.14799"
       y1="216.84801"
       x2="242.14799"
       y2="351.32199"
       gradientUnits="userSpaceOnUse"
       gradientTransform="translate(127.00039,4.18e-4)">
      <stop
         stop-color="#FFFF00"
         id="stop136" />
      <stop
         offset="1"
         stop-color="#FFE605"
         id="stop138" />
    </linearGradient>
    <linearGradient
       id="paint15_linear_149_31"
       x1="308.70401"
       y1="255.842"
       x2="242.05299"
       y2="351.255"
       gradientUnits="userSpaceOnUse"
       gradientTransform="translate(127.00039,4.18e-4)">
      <stop
         stop-color="#818181"
         id="stop141" />
      <stop
         offset="1"
         stop-opacity="0"
         id="stop143" />
    </linearGradient>
  </defs>
  <g
     id="g1057"
     transform="matrix(0.96915838,0,0,0.96915838,12.155285,10.252929)">
    <path
       d="m 357.62239,44.720518 c 0.078,47.522 -10.027,94.513902 -29.639,137.835902 -0.003,0.055 -0.003,0.109 0,0.164 -2.81,7.506 -6.397,14.701 -10.703,21.467 -5.503,8.639 -12.106,16.533 -19.644,23.483 -10.477,9.77 -22.712,17.481 -36.061,22.73 l -3.293,1.295 c -51.7651,20.271 -94.4624,58.44 -120.2689,107.514 -2.41501,4.635 -4.69282,9.364 -6.83341,14.185 0,-137.508 213.66431,-143.116 223.64231,-372.263142 1.877,14.45434 2.813,29.01454 2.8,43.58924 z"
       fill="url(#paint0_linear_149_31)"
       id="path2"
       style="fill:url(#paint0_linear_149_31)" />
    <path
       d="m 357.62239,44.720518 c 0.078,47.522 -10.027,94.513902 -29.639,137.835902 -0.003,0.055 -0.003,0.109 0,0.164 -2.81,7.506 -6.397,14.701 -10.703,21.467 -5.503,8.639 -12.106,16.533 -19.644,23.483 -10.477,9.77 -22.712,17.481 -36.061,22.73 l -3.293,1.295 c -51.7651,20.271 -94.4624,58.44 -120.2689,107.514 -2.41501,4.635 -4.69282,9.364 -6.83341,14.185 0,-137.508 213.66431,-143.116 223.64231,-372.263142 1.877,14.45434 2.813,29.01454 2.8,43.58924 z"
       fill="url(#paint1_linear_149_31)"
       fill-opacity="0.37"
       id="path4"
       style="fill:url(#paint1_linear_149_31)" />
    <path
       d="m 357.62239,44.720518 c 0.078,47.522 -10.027,94.513902 -29.639,137.835902 -0.003,0.055 -0.003,0.109 0,0.164 -2.81,7.506 -6.397,14.701 -10.703,21.467 -5.503,8.639 -12.106,16.533 -19.644,23.483 -10.477,9.77 -22.712,17.481 -36.061,22.73 l -3.293,1.295 c -51.7651,20.271 -94.4624,58.44 -120.2689,107.514 -2.41501,4.635 -4.69282,9.364 -6.83341,14.185 0,-137.508 213.66431,-143.116 223.64231,-372.263142 1.877,14.45434 2.813,29.01454 2.8,43.58924 z"
       fill="#000000"
       fill-opacity="0.2"
       id="path6" />
    <path
       d="m 354.80639,1.180108 c -9.978,229.097312 -223.64263,234.706312 -223.64263,372.263312 -0.95503,-3.575 -1.7454,-7.232 -2.35465,-10.938 -1.09081,-6.405 -1.64161,-12.889 -1.64661,-19.384 0,-37.358 18.70549,-69.451 45.16649,-93.247 0,0 0.0824,0 0.0988,-0.098 55.2106,-51.904 99.3726,-111.826 138.9246,-179.178202 13.799,-23.533 29.623,-45.8524 43.454,-69.41811 z"
       fill="url(#paint2_linear_149_31)"
       id="path8"
       style="fill:url(#paint2_linear_149_31)" />
    <path
       d="m 354.80639,1.180108 c -9.978,229.097312 -223.64263,234.706312 -223.64263,372.263312 -0.95503,-3.575 -1.7454,-7.232 -2.35465,-10.938 -1.09081,-6.405 -1.64161,-12.889 -1.64661,-19.384 0,-37.358 18.70549,-69.451 45.16649,-93.247 0,0 0.0824,0 0.0988,-0.098 55.2106,-51.904 99.3726,-111.826 138.9246,-179.178202 13.799,-23.533 29.623,-45.8524 43.454,-69.41811 z"
       fill="url(#paint3_linear_149_31)"
       fill-opacity="0.37"
       id="path10"
       style="fill:url(#paint3_linear_149_31)" />
    <path
       d="m 354.80639,1.180108 c -9.978,229.097312 -223.64263,234.706312 -223.64263,372.263312 -0.95503,-3.575 -1.7454,-7.232 -2.35465,-10.938 -1.09081,-6.405 -1.64161,-12.889 -1.64661,-19.384 0,-37.358 18.70549,-69.451 45.16649,-93.247 0,0 0.0824,0 0.0988,-0.098 55.2106,-51.904 99.3726,-111.826 138.9246,-179.178202 13.799,-23.533 29.623,-45.8524 43.454,-69.41811 z"
       fill="#ffffff"
       fill-opacity="0.2"
       id="path12" />
    <path
       d="m 308.04439,248.82442 c -26.856,64.318 -108.3799,77.077 -154.3204,134.474 2.1095,-9.82 5.4278,-19.343 9.8797,-28.354 12.7937,-25.855 33.8793,-46.722 59.9202,-59.3 3.9625,-1.618 7.9095,-3.307 11.8395,-5.067 19.863,-8.857 38.985,-19.276 57.186,-31.159 5.27,-3.411 10.434,-6.942 15.495,-10.594 z"
       fill="url(#paint4_linear_149_31)"
       id="path14"
       style="fill:url(#paint4_linear_149_31)" />
    <path
       d="m 308.04439,248.82442 c -26.856,64.318 -108.3799,77.077 -154.3204,134.474 2.1095,-9.82 5.4278,-19.343 9.8797,-28.354 12.7937,-25.855 33.8793,-46.722 59.9202,-59.3 3.9625,-1.618 7.9095,-3.307 11.8395,-5.067 19.863,-8.857 38.985,-19.276 57.186,-31.159 5.27,-3.411 10.434,-6.942 15.495,-10.594 z"
       fill="url(#paint5_linear_149_31)"
       fill-opacity="0.2"
       id="path16"
       style="fill:url(#paint5_linear_149_31)" />
    <path
       d="m 308.04439,248.82442 c -26.856,64.318 -108.3799,77.077 -154.3204,134.474 2.1095,-9.82 5.4278,-19.343 9.8797,-28.354 12.7937,-25.855 33.8793,-46.722 59.9202,-59.3 3.9625,-1.618 7.9095,-3.307 11.8395,-5.067 19.863,-8.857 38.985,-19.276 57.186,-31.159 5.27,-3.411 10.434,-6.942 15.495,-10.594 z"
       fill="#ffffff"
       fill-opacity="0.2"
       id="path18" />
    <path
       d="m 472.83739,257.10642 c 0,37.357 -18.722,69.451 -45.167,93.246 l -0.099,0.098 c -55.145,51.855 -99.356,111.778 -138.891,179.13 -13.799,23.532 -29.639,45.917 -43.454,69.418 9.879,-229.098 223.642,-234.707 223.642,-372.264 0.955,3.575 1.746,7.232 2.355,10.939 1.082,6.421 1.622,12.922 1.614,19.433 z"
       fill="url(#paint6_linear_149_31)"
       id="path20"
       style="fill:url(#paint6_linear_149_31)" />
    <path
       d="m 472.83739,257.10642 c 0,37.357 -18.722,69.451 -45.167,93.246 l -0.099,0.098 c -55.145,51.855 -99.356,111.778 -138.891,179.13 -13.799,23.532 -29.639,45.917 -43.454,69.418 9.879,-229.098 223.642,-234.707 223.642,-372.264 0.955,3.575 1.746,7.232 2.355,10.939 1.082,6.421 1.622,12.922 1.614,19.433 z"
       fill="url(#paint7_linear_149_31)"
       fill-opacity="0.37"
       id="path22"
       style="fill:url(#paint7_linear_149_31)" />
    <path
       d="m 472.83739,257.10642 c 0,37.357 -18.722,69.451 -45.167,93.246 l -0.099,0.098 c -55.145,51.855 -99.356,111.778 -138.891,179.13 -13.799,23.532 -29.639,45.917 -43.454,69.418 9.879,-229.098 223.642,-234.707 223.642,-372.264 0.955,3.575 1.746,7.232 2.355,10.939 1.082,6.421 1.622,12.922 1.614,19.433 z"
       fill="#ffffff"
       fill-opacity="0.2"
       id="path24" />
    <path
       d="m 468.86839,226.78542 c 0,137.508 -213.68,143.117 -223.642,372.263 -1.866,-14.455 -2.79,-29.015 -2.767,-43.589 -0.066,-47.494 10.038,-94.457 29.639,-137.754 0.003,-0.054 0.003,-0.109 0,-0.164 2.81,-7.506 6.397,-14.7 10.703,-21.466 5.503,-8.64 12.106,-16.534 19.644,-23.484 10.477,-9.769 22.712,-17.481 36.061,-22.729 l 3.293,-1.296 c 51.697,-20.308 94.326,-58.472 120.088,-107.513 2.525,-4.691 4.852,-9.446 6.981,-14.268 z"
       fill="url(#paint8_linear_149_31)"
       id="path26"
       style="fill:url(#paint8_linear_149_31)" />
    <path
       d="m 468.86839,226.78542 c 0,137.508 -213.68,143.117 -223.642,372.263 -1.866,-14.455 -2.79,-29.015 -2.767,-43.589 -0.066,-47.494 10.038,-94.457 29.639,-137.754 0.003,-0.054 0.003,-0.109 0,-0.164 2.81,-7.506 6.397,-14.7 10.703,-21.466 5.503,-8.64 12.106,-16.534 19.644,-23.484 10.477,-9.769 22.712,-17.481 36.061,-22.729 l 3.293,-1.296 c 51.697,-20.308 94.326,-58.472 120.088,-107.513 2.525,-4.691 4.852,-9.446 6.981,-14.268 z"
       fill="url(#paint9_linear_149_31)"
       fill-opacity="0.37"
       id="path28"
       style="fill:url(#paint9_linear_149_31)" />
    <path
       d="m 468.86839,226.78542 c 0,137.508 -213.68,143.117 -223.642,372.263 -1.866,-14.455 -2.79,-29.015 -2.767,-43.589 -0.066,-47.494 10.038,-94.457 29.639,-137.754 0.003,-0.054 0.003,-0.109 0,-0.164 2.81,-7.506 6.397,-14.7 10.703,-21.466 5.503,-8.64 12.106,-16.534 19.644,-23.484 10.477,-9.769 22.712,-17.481 36.061,-22.729 l 3.293,-1.296 c 51.697,-20.308 94.326,-58.472 120.088,-107.513 2.525,-4.691 4.852,-9.446 6.981,-14.268 z"
       fill="#8d8d8d"
       fill-opacity="0.2"
       id="path30" />
    <path
       d="m 446.30939,216.84842 c -45.941,57.495 -127.464,70.189 -154.321,134.474 3.294,-11.458 7.081,-22.708 11.362,-33.75 1.844,-4.789 3.782,-9.533 5.812,-14.235 4.512,-10.462 14.82,-30.715 14.82,-30.715 14.276,-25.436 40.77,-35.324 69.158,-36.44 h 0.148 c 1.103,0 2.206,0 3.293,0 h 0.198 c 18.209,-0.78 35.638,-7.583 49.53,-19.334 z"
       fill="url(#paint10_linear_149_31)"
       id="path32"
       style="fill:url(#paint10_linear_149_31)" />
    <path
       d="m 446.30939,216.84842 c -45.941,57.495 -127.464,70.189 -154.321,134.474 3.294,-11.458 7.081,-22.708 11.362,-33.75 1.844,-4.789 3.782,-9.533 5.812,-14.235 4.512,-10.462 14.82,-30.715 14.82,-30.715 14.276,-25.436 40.77,-35.324 69.158,-36.44 h 0.148 c 1.103,0 2.206,0 3.293,0 h 0.198 c 18.209,-0.78 35.638,-7.583 49.53,-19.334 z"
       fill="url(#paint11_linear_149_31)"
       fill-opacity="0.2"
       id="path34"
       style="fill:url(#paint11_linear_149_31)" />
    <path
       d="m 446.30939,216.84842 c -45.941,57.495 -127.464,70.189 -154.321,134.474 3.294,-11.458 7.081,-22.708 11.362,-33.75 1.844,-4.789 3.782,-9.533 5.812,-14.235 4.512,-10.462 14.82,-30.715 14.82,-30.715 14.276,-25.436 40.77,-35.324 69.158,-36.44 h 0.148 c 1.103,0 2.206,0 3.293,0 h 0.198 c 18.209,-0.78 35.638,-7.583 49.53,-19.334 z"
       fill="#707070"
       fill-opacity="0.2"
       id="path36" />
    <path
       d="m 308.04439,248.82442 c -3.293,11.458 -7.081,22.708 -11.362,33.75 -1.844,4.788 -3.782,9.533 -5.812,14.234 -4.512,10.463 -14.82,30.716 -14.82,30.716 -14.276,25.436 -40.77,35.324 -69.1576,36.439 h -0.1482 c -1.1032,0 -2.2064,0 -3.2932,0 h -0.1976 c -18.207,0.741 -35.6469,7.504 -49.563,19.22 45.9569,-57.348 127.4976,-70.041 154.3536,-134.359 z"
       fill="url(#paint12_linear_149_31)"
       id="path38"
       style="fill:url(#paint12_linear_149_31)" />
    <path
       d="m 308.04439,248.82442 c -3.293,11.458 -7.081,22.708 -11.362,33.75 -1.844,4.788 -3.782,9.533 -5.812,14.234 -4.512,10.463 -14.82,30.716 -14.82,30.716 -14.276,25.436 -40.77,35.324 -69.1576,36.439 h -0.1482 c -1.1032,0 -2.2064,0 -3.2932,0 h -0.1976 c -18.207,0.741 -35.6469,7.504 -49.563,19.22 45.9569,-57.348 127.4976,-70.041 154.3536,-134.359 z"
       fill="url(#paint13_linear_149_31)"
       fill-opacity="0.2"
       id="path40"
       style="fill:url(#paint13_linear_149_31)" />
    <path
       d="m 308.04439,248.82442 c -3.293,11.458 -7.081,22.708 -11.362,33.75 -1.844,4.788 -3.782,9.533 -5.812,14.234 -4.512,10.463 -14.82,30.716 -14.82,30.716 -14.276,25.436 -40.77,35.324 -69.1576,36.439 h -0.1482 c -1.1032,0 -2.2064,0 -3.2932,0 h -0.1976 c -18.207,0.741 -35.6469,7.504 -49.563,19.22 45.9569,-57.348 127.4976,-70.041 154.3536,-134.359 z"
       fill="#9c9c9c"
       fill-opacity="0.2"
       id="path42" />
    <path
       d="m 446.30939,216.84842 c -2.11,9.82 -5.428,19.343 -9.88,28.354 -12.805,25.878 -33.915,46.758 -59.986,59.333 -3.963,1.629 -7.909,3.318 -11.839,5.067 -19.863,8.857 -38.986,19.276 -57.187,31.159 -5.225,3.4 -10.368,6.92 -15.429,10.561 26.857,-64.285 108.38,-76.979 154.321,-134.474 z"
       fill="url(#paint14_linear_149_31)"
       id="path44"
       style="fill:url(#paint14_linear_149_31)" />
    <path
       d="m 446.30939,216.84842 c -2.11,9.82 -5.428,19.343 -9.88,28.354 -12.805,25.878 -33.915,46.758 -59.986,59.333 -3.963,1.629 -7.909,3.318 -11.839,5.067 -19.863,8.857 -38.986,19.276 -57.187,31.159 -5.225,3.4 -10.368,6.92 -15.429,10.561 26.857,-64.285 108.38,-76.979 154.321,-134.474 z"
       fill="url(#paint15_linear_149_31)"
       fill-opacity="0.2"
       id="path46"
       style="fill:url(#paint15_linear_149_31)" />
    <path
       d="m 446.30939,216.84842 c -2.11,9.82 -5.428,19.343 -9.88,28.354 -12.805,25.878 -33.915,46.758 -59.986,59.333 -3.963,1.629 -7.909,3.318 -11.839,5.067 -19.863,8.857 -38.986,19.276 -57.187,31.159 -5.225,3.4 -10.368,6.92 -15.429,10.561 26.857,-64.285 108.38,-76.979 154.321,-134.474 z"
       fill="#ffffff"
       fill-opacity="0.2"
       id="path48" />
    <path
       d="m 245.29139,598.16342 c 4.413,-107.398 52.84,-171.142 133.837,-236.428 28.404,-24.156 58.882,-48.148 76.534,-81.668 8.688,-16.725 13.206,-35.287 13.173,-54.118 0.145,18.858 -4.277,37.472 -12.893,54.265 -17.602,33.619 -48.081,57.726 -76.452,81.997 -81.31,65.941 -129.028,128.078 -134.298,235.985 z"
       fill="#ffffff"
       id="path50" />
    <path
       d="m 153.78849,382.48042 c 21.4389,-27.502 52.1481,-45.344 81.4409,-63.383 29.162,-17.744 59.18,-38.637 72.879,-71.091 -3.308,7.992 -7.583,15.553 -12.728,22.516 -15.56,20.975 -37.872,35.619 -59.69,49.313 -29.2598,18.039 -59.8867,35.668 -81.9019,62.678 z"
       fill="#ffffff"
       id="path52" />
    <path
       d="m 446.37539,216.01242 c -21.406,27.501 -52.247,45.262 -81.458,63.416 -29.128,17.793 -59.278,38.571 -72.862,71.09 3.268,-8.008 7.522,-15.582 12.662,-22.549 15.61,-20.941 37.872,-35.586 59.739,-49.197 29.343,-18.039 59.937,-35.652 81.919,-62.678 z"
       fill="#ffffff"
       id="path54" />
    <path
       d="m 354.79139,0.95159 c -4.413,107.38283 -52.84,171.12583 -133.9025,236.44483 -28.404,24.156 -58.8828,48.148 -76.5344,81.701 -8.68756,16.725 -13.20574,35.287 -13.1729,54.117 -0.14517,-18.857 4.27748,-37.472 12.893,-54.265 17.6022,-33.618 48.081,-57.725 76.4521,-81.996 81.2107,-65.958 128.9627,-128.111 134.2647,-236.00183 z"
       fill="#ffffff"
       id="path56" />
  </g>
</svg>
